# xmcd
#
# Track frame offsets:
#	150
#	20795
#	42066
#	63357
#	87454
#	110061
#	129109
#	146604
#	180608
#	199920
#
# Disc length: 2935 seconds
#
# Revision: 0
# Processed by: cddbd v1.5.1PL0 Copyright (c) Steve Scherf et al.
# Submitted via: EasyCDDAExtractor 8.0.2.1
#
DISCID=8c0b750a
DTITLE=Danny Davis - 30 All Time Favorites
DYEAR=1990
DGENRE=Bluegrass
TTITLE0=Oh, Lonesome Me-Last Date-On The Rebound
TTITLE1=Tennesee Waltz-I'd Be A Legend In My Time-There Goes My Everything
TTITLE2=Walkin' After Midnight-Sweet Memories-Chattanooga Shoe Shine Boy
TTITLE3=Jealous Heart-Singing The Blues-Sweet Dreams-Send Me The Pillow
TTITLE4=In The Misty Moonlight-That's The Way Love Goes-Am I That Easy To Forg
TTITLE4=et
TTITLE5=Lonely Street-I Love You Because
TTITLE6=Bonaparte's Retreat-Blue Eyes Crying In The Rain-Don't Let The Stars G
TTITLE6=et In Your Eyes
TTITLE7=It's A Sin-They'll Never Take Her Love From Me-So Sad To Watch Good Lo
TTITLE7=ve Go Bad-Take These Chains From My Heart
TTITLE8=I Can't Stop Loving You-Elvira
TTITLE9=Making Believe-You've Got A Place In My Heart-Release Me
EXTD=
EXTT0=
EXTT1=
EXTT2=
EXTT3=
EXTT4=
EXTT5=
EXTT6=
EXTT7=
EXTT8=
EXTT9=
PLAYORDER=
